<svg xmlns="http://www.w3.org/2000/svg" viewBox="0 0 210 210" role="img" aria-label="Classroom">
  <path fill="#ffc94b" d="M26 0h158l26 27v156l-27 27H26L0 184V26z"/>
  <path fill="#241504" d="M31 6h148l25 25v147l-25 26H31L6 179V31z"/>
  <path fill="#8b5b16" d="M34 10h142l23 23v142l-24 24H35l-24-23V34z"/>
  <path fill="#b5761b" d="M36 13h137l21 21v116c-29 13-61 20-95 20-31 0-60-6-86-17V36z"/>
  <path fill="#190f04" d="M50 57h109v74H50z"/>
  <path fill="#fff1be" d="M56 64h97v47H56z"/>
  <path fill="#3a2409" d="M62 70h85v35H62z"/>
  <path fill="#fff6d6" d="M70 79h40v7H70zm0 14h67v7H70z"/>
  <path fill="#fff1be" d="M97 118h16v14H97z"/>
  <path fill="#fff1be" d="M74 137h61v10H74z"/>
  <circle cx="76" cy="129" r="13" fill="#fff8db"/>
  <path fill="#fff8db" d="M53 166c3-19 14-30 23-30s20 11 23 30z"/>
  <circle cx="135" cy="129" r="13" fill="#fff8db"/>
  <path fill="#fff8db" d="M112 166c3-19 14-30 23-30s20 11 23 30z"/>
</svg>
